<svg width="79" height="70" viewBox="0 0 79 70" fill="none" xmlns="http://www.w3.org/2000/svg">
<path d="M44.7532 17.0673C44.7532 21.5938 46.5573 25.9349 49.7685 29.1357C52.9798 32.3364 57.3352 34.1346 61.8766 34.1346C66.418 34.1346 70.7734 32.3364 73.9847 29.1357C77.1959 25.9349 79 21.5938 79 17.0673C79 14.826 78.5571 12.6066 77.6966 10.5359C76.836 8.46522 75.5747 6.58374 73.9847 4.99889C72.3946 3.41405 70.5069 2.15688 68.4294 1.29917C66.3519 0.441459 64.1253 0 61.8766 0C59.6279 0 57.4013 0.441459 55.3237 1.29917C53.2462 2.15688 51.3586 3.41405 49.7685 4.99889C48.1785 6.58374 46.9172 8.46522 46.0566 10.5359C45.1961 12.6066 44.7532 14.826 44.7532 17.0673Z" fill="#D4F74C"/>
<path d="M74.7619 51.5688C74.7607 52.1176 74.5415 52.6436 74.1521 53.0317C73.7628 53.4198 73.2351 53.6383 72.6845 53.6394H60.2068C59.6558 53.6417 59.128 53.8612 58.7388 54.25C58.3496 54.6388 58.1305 55.1652 58.1293 55.7144C58.1293 56.2636 58.3482 56.7903 58.7378 57.1786C59.1274 57.5669 59.6558 57.785 60.2068 57.785H64.366C64.9174 57.7862 65.4458 58.0053 65.8352 58.3943C66.2247 58.7833 66.4434 59.3105 66.4434 59.86C66.4423 60.4088 66.223 60.9348 65.8337 61.3229C65.4443 61.711 64.9166 61.9295 64.366 61.9306H58.8437C53.2093 66.7823 46.1052 69.6104 38.6677 69.9626C31.2302 70.3148 23.8891 68.1707 17.8186 63.8732C11.748 59.5758 7.29885 53.3733 5.18264 46.2579C3.06643 39.1425 3.40547 31.5253 6.14554 24.6246H1.98631C1.45128 24.6001 0.946299 24.371 0.576363 23.985C0.206427 23.5989 0 23.0856 0 22.5518C0 22.018 0.206427 21.5047 0.576363 21.1186C0.946299 20.7326 1.45128 20.5035 1.98631 20.479H10.3135C10.8136 20.4792 11.2969 20.2995 11.6748 19.973C12.0527 19.6466 12.2998 19.1952 12.3706 18.7018C12.4415 18.2084 12.3314 17.7061 12.0606 17.2871C11.7898 16.8681 11.3765 16.5605 10.8964 16.4208L10.9622 16.3378H6.14554C5.86441 16.3506 5.58358 16.3066 5.32003 16.2082C5.05647 16.1098 4.81566 15.9592 4.61215 15.7655C4.40863 15.5717 4.24665 15.3389 4.13597 15.081C4.0253 14.8231 3.96824 14.5455 3.96824 14.265C3.96824 13.9845 4.0253 13.7069 4.13597 13.449C4.24665 13.1911 4.40863 12.9582 4.61215 12.7645C4.81566 12.5707 5.05647 12.4201 5.32003 12.3217C5.58358 12.2234 5.86441 12.1793 6.14554 12.1922H14.8453C20.4529 7.15735 27.611 4.17196 35.145 3.72589C42.679 3.27982 50.1414 5.39957 56.3076 9.7373C62.4737 14.075 66.9774 20.3731 69.0796 27.5979C71.1818 34.8228 70.7576 42.5453 67.8766 49.4982H72.6976C73.2459 49.5028 73.7703 49.7229 74.1568 50.1105C74.5433 50.4982 74.7607 51.0223 74.7619 51.5688Z" fill="#9EBF1A"/>
<path d="M46.2696 43.6009C45.6822 43.4547 45.0651 43.4777 44.4903 43.6671C43.9154 43.8566 43.4062 44.2047 43.022 44.6711L37.3946 51.4902C37.2161 51.7061 36.9919 51.88 36.7381 51.9994C36.4842 52.1188 36.207 52.1808 35.9263 52.1808C35.6456 52.1808 35.3684 52.1188 35.1146 51.9994C34.8607 51.88 34.6366 51.7061 34.4581 51.4902L28.8307 44.6711C28.4464 44.2047 27.9373 43.8566 27.3624 43.6671C26.7875 43.4777 26.1705 43.4547 25.583 43.6009C19.7058 45.0424 15.7876 47.6941 15.7876 50.7214C15.7876 55.3038 24.8117 59.0213 35.9482 59.0213C47.0848 59.0213 56.1089 55.3038 56.1089 50.7214C56.1089 47.6941 52.1644 45.0424 46.2696 43.6009Z" fill="white"/>
<path d="M31.3595 42.6398C32.705 44.6318 33.9497 46.3442 34.7956 47.4844C34.9264 47.6605 35.0969 47.8037 35.2932 47.9023C35.4896 48.0009 35.7064 48.0523 35.9263 48.0523C36.1462 48.0523 36.3631 48.0009 36.5594 47.9023C36.7558 47.8037 36.9262 47.6605 37.0571 47.4844C37.903 46.3442 39.1477 44.6318 40.4932 42.6398C41.9789 40.4556 43.5918 37.9089 44.9373 35.432C46.6904 32.2169 47.9789 29.0935 47.9789 26.9136C47.9789 23.7276 46.7091 20.672 44.4488 18.4191C42.1885 16.1662 39.1229 14.9006 35.9263 14.9006C32.7298 14.9006 29.6642 16.1662 27.4039 18.4191C25.1436 20.672 23.8738 23.7276 23.8738 26.9136C23.8738 29.0978 25.1886 32.2169 26.9154 35.432C28.2609 37.9089 29.8738 40.4425 31.3595 42.6398ZM35.2602 22.8205C36.0854 22.6795 36.9342 22.8038 37.6838 23.1756C38.4334 23.5474 39.0449 24.1473 39.4297 24.8884C39.8146 25.6296 39.9528 26.4735 39.8244 27.2982C39.6961 28.1229 39.3078 28.8854 38.7158 29.4755C38.1237 30.0656 37.3587 30.4526 36.5313 30.5806C35.7039 30.7085 34.8572 30.5707 34.1136 30.1871C33.37 29.8035 32.7682 29.1941 32.3952 28.4469C32.0222 27.6998 31.8974 26.8538 32.0388 26.0312C32.1767 25.2297 32.5605 24.4905 33.1374 23.9155C33.7144 23.3404 34.456 22.9579 35.2602 22.8205Z" fill="white"/>
</svg>
